<svg width="23" height="23" viewBox="0 0 23 23" fill="none" xmlns="http://www.w3.org/2000/svg">
<path fill-rule="evenodd" clip-rule="evenodd" d="M11.2063 0C5.01878 0 0 5.1775 0 11.5607C0 16.6673 3.23127 20.9937 7.63129 22.554C8.18129 22.6249 8.38754 22.2703 8.38754 21.9866C8.38754 21.7029 8.38754 20.9937 8.38754 20.0007C5.29378 20.71 4.60627 18.4404 4.60627 18.4404C4.12502 17.0928 3.36877 16.7382 3.36877 16.7382C2.33751 16.029 3.43752 16.029 3.43752 16.029C4.53752 16.0999 5.15628 17.2347 5.15628 17.2347C6.18753 19.0078 7.76879 18.5113 8.38754 18.2276C8.4563 17.4475 8.80005 16.951 9.07505 16.6673C6.60004 16.3836 3.98752 15.3906 3.98752 10.9224C3.98752 9.64575 4.40002 8.6528 5.15628 7.80171C5.08753 7.58893 4.67502 6.38321 5.29378 4.82287C5.29378 4.82287 6.25628 4.53917 8.38754 6.02859C9.2813 5.74489 10.2438 5.67397 11.2063 5.67397C12.1688 5.67397 13.1313 5.81582 14.0251 6.02859C16.1563 4.53917 17.1188 4.82287 17.1188 4.82287C17.7376 6.38321 17.3251 7.58893 17.2563 7.87263C17.9438 8.6528 18.4251 9.71667 18.4251 10.9933C18.4251 15.4616 15.8126 16.3836 13.3376 16.6673C13.7501 17.0219 14.0938 17.7312 14.0938 18.795C14.0938 20.3554 14.0938 21.5611 14.0938 21.9866C14.0938 22.2703 14.3001 22.6249 14.8501 22.554C19.3189 20.9937 22.4814 16.6673 22.4814 11.5607C22.4126 5.1775 17.3938 0 11.2063 0Z" fill="#959595"/>
</svg>
