<svg width="47" height="336" viewBox="0 0 47 336" fill="none" xmlns="http://www.w3.org/2000/svg">
<path d="M38.8125 0L7.1875 0C3.21795 0 0 3.21795 0 7.1875L0 38.8125C0 42.782 3.21795 46 7.1875 46H38.8125C42.782 46 46 42.782 46 38.8125V7.1875C46 3.21795 42.782 0 38.8125 0Z" fill="#03AB1E" fill-opacity="0.6"/>
<path d="M13.417 17.4108C15.9165 24.6472 18.6266 27.4945 25.6342 30.431L22.4489 34.7917C14.4102 31.1076 10.5274 24.6718 8.75192 19.6201L13.417 17.4108Z" fill="white"/>
<path d="M15.9403 7.28108C17.3799 7.24188 18.4429 8.40686 18.3093 9.75723C18.099 11.8823 18.2231 13.409 18.6158 15.2959C18.8315 16.3324 18.2536 17.4036 17.3615 18.1058C16.1591 19.0522 15.2281 20.2441 14.4861 21.2687C13.4578 22.6889 10.048 22.6682 9.33343 21.1639C7.86486 18.0723 6.96555 12.3344 9.33289 8.38829C9.70474 7.76845 10.4295 7.43115 11.1718 7.41094L15.9403 7.28108Z" fill="white"/>
<path d="M37.1803 29.9163C37.3946 28.5714 36.2979 27.4346 34.8623 27.3975C32.6032 27.3391 31.0133 27.0391 29.077 26.444C28.0135 26.1172 26.8178 26.5302 25.9725 27.2821C24.833 28.2956 23.4682 29.0251 22.3019 29.5975C20.6854 30.3909 20.2971 33.5902 21.7924 34.4411C24.8656 36.1897 30.789 37.7229 35.2218 35.978C35.9181 35.7039 36.3598 35.065 36.4703 34.3714L37.1803 29.9163Z" fill="white"/>
<path d="M38.8125 73H7.1875C3.21795 73 0 76.218 0 80.1875L0 111.812C0 115.782 3.21795 119 7.1875 119H38.8125C42.782 119 46 115.782 46 111.812V80.1875C46 76.218 42.782 73 38.8125 73Z" fill="#88311D" fill-opacity="0.79"/>
<path fill-rule="evenodd" clip-rule="evenodd" d="M35.9725 84C36.9613 84 37.8394 84.4474 38.3919 85.1393L22.3454 97.8402L6.44196 85.3699C6.9737 84.5484 7.93275 84 9.02752 84H35.9725ZM6 105.143V87.6237L17.4112 96.5714L6.02352 105.501C6.008 105.384 6 105.264 6 105.143ZM7.04362 107.301C7.57495 107.736 8.26863 108 9.02752 108H35.9725C36.6248 108 37.2289 107.805 37.7231 107.474L25.5974 97.8766L23.4168 99.6025C22.8001 100.091 21.9017 100.093 21.2827 99.6072L19.0692 97.8716L7.04362 107.301ZM27.2463 96.5714L38.9173 105.809C38.9714 105.595 39 105.372 39 105.143V87.2683L27.2463 96.5714Z" fill="white"/>
<path d="M38.8125 146H7.1875C3.21795 146 0 149.218 0 153.188L0 184.812C0 188.782 3.21795 192 7.1875 192H38.8125C42.782 192 46 188.782 46 184.812V153.188C46 149.218 42.782 146 38.8125 146Z" fill="#2867B2" fill-opacity="0.74"/>
<path d="M15.6976 180.105H10.3165V164.653H15.6976V180.105ZM13.007 162.487C11.2661 162.487 10 161.332 10 159.744C10 158.155 11.4244 157 13.007 157C14.748 157 16.0141 158.155 16.0141 159.744C16.0141 161.332 14.748 162.487 13.007 162.487ZM35.3224 180.105H29.9414V171.729C29.9414 169.274 28.8335 168.552 27.2509 168.552C25.6682 168.552 24.0856 169.708 24.0856 171.874V180.105H18.7046V164.653H23.7691V166.82C24.2439 165.809 26.143 164.22 28.8335 164.22C31.8406 164.22 35.0059 165.809 35.0059 170.574V180.105H35.3224Z" fill="white"/>
<path d="M38.8125 219H7.1875C3.21795 219 0 222.218 0 226.188L0 257.812C0 261.782 3.21795 265 7.1875 265H38.8125C42.782 265 46 261.782 46 257.812V226.188C46 222.218 42.782 219 38.8125 219Z" fill="#7528B2" fill-opacity="0.7"/>
<path fill-rule="evenodd" clip-rule="evenodd" d="M22.6927 224C12.3716 224 4 232.483 4 242.942C4 251.309 9.38991 258.398 16.7294 260.954C17.6468 261.07 17.9908 260.489 17.9908 260.024C17.9908 259.56 17.9908 258.398 17.9908 256.771C12.8303 257.933 11.6835 254.214 11.6835 254.214C10.8807 252.006 9.61927 251.425 9.61927 251.425C7.89908 250.263 9.73395 250.263 9.73395 250.263C11.5688 250.379 12.6009 252.239 12.6009 252.239C14.3211 255.144 16.9587 254.33 17.9908 253.865C18.1055 252.587 18.6789 251.774 19.1376 251.309C15.0092 250.844 10.6514 249.217 10.6514 241.896C10.6514 239.804 11.3395 238.177 12.6009 236.783C12.4862 236.434 11.7982 234.459 12.8303 231.902C12.8303 231.902 14.4358 231.437 17.9908 233.878C19.4817 233.413 21.0872 233.297 22.6927 233.297C24.2982 233.297 25.9037 233.529 27.3945 233.878C30.9495 231.437 32.555 231.902 32.555 231.902C33.5872 234.459 32.8991 236.434 32.7844 236.899C33.9312 238.177 34.7339 239.92 34.7339 242.012C34.7339 249.333 30.3761 250.844 26.2477 251.309C26.9358 251.89 27.5092 253.052 27.5092 254.795C27.5092 257.352 27.5092 259.327 27.5092 260.024C27.5092 260.489 27.8532 261.07 28.7706 260.954C36.2248 258.398 41.5 251.309 41.5 242.942C41.3853 232.483 33.0138 224 22.6927 224Z" fill="white"/>
<path d="M39.4865 289.797H7.83609C3.86336 289.797 0.642822 293.002 0.642822 296.956L0.642822 328.455C0.642822 332.408 3.86336 335.614 7.83609 335.614H39.4865C43.4592 335.614 46.6797 332.408 46.6797 328.455V296.956C46.6797 293.002 43.4592 289.797 39.4865 289.797Z" fill="#5865F2" fill-opacity="0.69"/>
<path d="M37.5341 300.242C34.9826 299.095 32.2465 298.251 29.3857 297.767C29.3336 297.758 29.2816 297.781 29.2548 297.828C28.9029 298.44 28.5131 299.24 28.2401 299.868C25.1632 299.417 22.102 299.417 19.0882 299.868C18.8152 299.226 18.4112 298.44 18.0578 297.828C18.0309 297.782 17.9789 297.759 17.9268 297.767C15.0676 298.249 12.3315 299.094 9.77841 300.242C9.7563 300.251 9.73736 300.267 9.72479 300.287C4.53496 307.88 3.11325 315.286 3.8107 322.6C3.81385 322.636 3.83437 322.67 3.86277 322.692C7.28686 325.154 10.6037 326.649 13.8589 327.64C13.911 327.655 13.9662 327.637 13.9994 327.595C14.7694 326.565 15.4558 325.479 16.0443 324.337C16.0791 324.271 16.0459 324.191 15.9749 324.165C14.8862 323.76 13.8494 323.267 12.8522 322.707C12.7733 322.662 12.767 322.552 12.8396 322.499C13.0494 322.345 13.2593 322.185 13.4597 322.023C13.496 321.993 13.5465 321.987 13.5891 322.006C20.1406 324.935 27.2334 324.935 33.7076 322.006C33.7502 321.985 33.8008 321.992 33.8386 322.021C34.039 322.183 34.2489 322.345 34.4603 322.499C34.5329 322.552 34.5282 322.662 34.4493 322.707C33.452 323.278 32.4153 323.76 31.325 324.163C31.254 324.19 31.2224 324.271 31.2572 324.337C31.8583 325.478 32.5447 326.563 33.3005 327.593C33.3321 327.637 33.3889 327.655 33.441 327.64C36.712 326.649 40.0288 325.154 43.4529 322.692C43.4829 322.67 43.5018 322.637 43.505 322.601C44.3397 314.145 42.1069 306.8 37.5862 300.288C37.5751 300.267 37.5562 300.251 37.5341 300.242ZM17.0227 318.146C15.0502 318.146 13.425 316.373 13.425 314.195C13.425 312.017 15.0187 310.244 17.0227 310.244C19.0424 310.244 20.6519 312.033 20.6203 314.195C20.6203 316.373 19.0266 318.146 17.0227 318.146ZM30.3246 318.146C28.3522 318.146 26.7269 316.373 26.7269 314.195C26.7269 312.017 28.3206 310.244 30.3246 310.244C32.3443 310.244 33.9538 312.033 33.9223 314.195C33.9223 316.373 32.3443 318.146 30.3246 318.146Z" fill="white"/>
</svg>
