<svg width="23" height="22" viewBox="0 0 23 22" fill="none" xmlns="http://www.w3.org/2000/svg">
<path fill-rule="evenodd" clip-rule="evenodd" d="M11.4664 0.143066C5.47255 0.143066 0.609604 5.00602 0.609604 10.9999C0.609604 16.9938 5.47255 21.8567 11.4664 21.8567C17.4485 21.8567 22.3232 16.9938 22.3232 10.9999C22.3232 5.00602 17.4485 0.143066 11.4664 0.143066ZM18.6374 5.14715C19.9741 6.77508 20.7138 8.81124 20.7336 10.9176C20.4278 10.8587 17.3662 10.2345 14.2811 10.6235C14.2096 10.4697 14.1508 10.305 14.0802 10.1404C13.8883 9.68748 13.6844 9.23978 13.4686 8.79776C16.8831 7.40809 18.4374 5.40681 18.6374 5.14715ZM11.4664 1.74535C13.8214 1.74535 15.9765 2.62747 17.6132 4.07595C17.4485 4.31118 16.0471 6.18398 12.7502 7.41985C11.2303 4.62965 9.54748 2.34429 9.28782 1.99144C10.0019 1.82469 10.7331 1.7418 11.4664 1.74445V1.74535ZM7.52178 2.61571C7.76877 2.94594 9.4172 5.24215 10.9598 7.97355C6.62609 9.12799 2.79906 9.10446 2.38741 9.10446C2.98815 6.23103 4.93152 3.84072 7.52178 2.61571ZM2.18746 11.0116V10.7294C2.58826 10.7411 7.0857 10.7999 11.7143 9.41027C11.9848 9.92868 12.2318 10.4579 12.4671 10.9881C12.3494 11.0234 12.2201 11.0587 12.1025 11.094C7.32183 12.6365 4.77772 16.8517 4.56601 17.2055C3.03467 15.5059 2.18728 13.2993 2.18746 11.0116ZM11.4664 20.2788C9.3231 20.2788 7.34536 19.5487 5.77926 18.3246C5.94392 17.9826 7.82758 14.3555 13.056 12.5307C13.0796 12.5189 13.0922 12.5189 13.1148 12.5072C14.4222 15.8864 14.9515 18.7245 15.0935 19.537C13.9743 20.0201 12.7502 20.2788 11.4664 20.2788ZM16.6361 18.6892C16.542 18.1238 16.0471 15.4159 14.8338 12.0829C17.7426 11.6242 20.2858 12.3778 20.6042 12.4837C20.2034 15.0621 18.7197 17.2878 16.6361 18.6892Z" fill="#959595"/>
</svg>
